<svg xmlns="http://www.w3.org/2000/svg" viewBox="0 0 92.54 83.57"><defs><style>.cls-1{fill:none;stroke:#282828;stroke-linecap:round;stroke-miterlimit:10;stroke-width:4px;}.cls-2{fill:#282828;}.cls-3{fill:#f1f0f0;}</style></defs><title>leaf_1</title><g id="Layer_2" data-name="Layer 2"><g id="Layer_1-2" data-name="Layer 1"><path class="cls-1" d="M90.54,2A163.89,163.89,0,0,1,70.41,29.08"/><path class="cls-2" d="M17.44,52.34c2-2.06,3.12-4.45,3-8.49a19,19,0,0,1,8.31-16.09c4.87-3.45,12.15-4.12,18-4.3,5.11-.15,10,1.12,15.07,1.78s6.63.88,9.72,5.32a24.12,24.12,0,0,1,3.56,21.3c-1.7,5.17-5.55,8.5-7.84,13.07-1.06,2.12-.56,4.33-2.6,5.64s-5.87.61-8.12.74c-3.69.22-9.25.33-12.4,2.67-3.66,2.72-3.84,8.61-10.12,9.48-3.87.53-8.76-1.11-12.91-1C15.77,82.65,8,84.62,3.27,81.22-5.66,74.75,6.33,70,8.24,64c.2-.61-1.46-1.7-1-2.84.59-1.55,2-2.13,3.13-3C13.17,55.83,15.64,54.22,17.44,52.34Z"/><path class="cls-3" d="M8.32,76c8.95-2.19,16.8-6.94,24.15-12.2A186.81,186.81,0,0,0,53.23,46.17c3.32-3.12,6.46-6.43,9.69-9.67,1.63-1.6,3.26-3.21,4.83-4.87s3.07-3.39,4.56-5.12c3-3.48,5.9-7,8.67-10.64s5.47-7.34,7.92-11.2a.23.23,0,1,1,.39.24h0c-5,7.67-10.6,15-16.33,22.13l-4.35,5.33q-2.13,2.71-4.32,5.38c-3,3.53-6.15,6.84-9.37,10.13A150.55,150.55,0,0,1,33.8,65.72,76.89,76.89,0,0,1,21.68,72.5,40,40,0,0,1,8.32,76Z"/><path class="cls-3" d="M59.58,42.82c-.74,1.54-1.58,3-2.41,4.39s-1.82,2.73-2.62,4.17a21.76,21.76,0,0,0-2,4.48,10.39,10.39,0,0,0-.5,4.84.08.08,0,0,1-.06.09.08.08,0,0,1-.09-.05,10.36,10.36,0,0,1-.08-5.06,22.7,22.7,0,0,1,1.64-4.83,22.43,22.43,0,0,1,2.44-4.46,17.89,17.89,0,0,1,3.55-3.66.08.08,0,0,1,.11,0A.08.08,0,0,1,59.58,42.82Z"/><path class="cls-3" d="M40.3,38.61c2,.15,4.07.25,6.1.26s4.06,0,6.07-.16,4-.52,5.94-.83A15.63,15.63,0,0,0,64,36.08a.08.08,0,0,1,.11,0,.08.08,0,0,1,0,.09,6.89,6.89,0,0,1-2.43,2,13.75,13.75,0,0,1-3,1.13,24.28,24.28,0,0,1-6.21.56,66.74,66.74,0,0,1-12.24-1.16.08.08,0,0,1-.06-.09A.08.08,0,0,1,40.3,38.61Z"/><path class="cls-3" d="M25.11,57.58A27.2,27.2,0,0,0,31,57.16a43.81,43.81,0,0,0,5.7-1.35c1.87-.56,3.65-1.37,5.51-2,.93-.29,1.84-.65,2.79-.92s1.88-.61,2.86-.85a.08.08,0,0,1,.09.05.08.08,0,0,1,0,.08,24.79,24.79,0,0,1-5.18,3A30.56,30.56,0,0,1,37,57a44.77,44.77,0,0,1-5.92.93,25.39,25.39,0,0,1-6-.17.07.07,0,0,1,0-.15Z"/></g></g></svg>