<svg xmlns="http://www.w3.org/2000/svg" viewBox="0 0 29.26 48.77"><defs><style>.cls-1{fill:#383838;}</style></defs><title>phone</title><g id="Layer_2" data-name="Layer 2"><g id="Layer_1-2" data-name="Layer 1"><path class="cls-1" d="M24.38,0H4.88A4.91,4.91,0,0,0,0,4.88v39a4.91,4.91,0,0,0,4.88,4.88H24.38a4.91,4.91,0,0,0,4.88-4.88v-39A4.91,4.91,0,0,0,24.38,0ZM11.58,2.84h6.09a.61.61,0,1,1,0,1.22H11.58a.61.61,0,1,1,0-1.22Zm3,44a2.25,2.25,0,1,1,2.25-2.25A2.25,2.25,0,0,1,14.63,46.82Zm11-7.2a1.39,1.39,0,0,1-1.22,1.45H4.88a1.39,1.39,0,0,1-1.22-1.45V7.74A1.39,1.39,0,0,1,4.88,6.29H24.38A1.39,1.39,0,0,1,25.6,7.74Z"/></g></g></svg>