<svg xmlns="http://www.w3.org/2000/svg" viewBox="0 0 34.29 49.12"><defs><style>.cls-1{fill:#383838;}</style></defs><title>pin</title><g id="Layer_2" data-name="Layer 2"><g id="Layer_1-2" data-name="Layer 1"><path class="cls-1" d="M17.36,0h-.43V0A16.77,16.77,0,0,0,0,15.46v2.12c0,.09,0,.89.07,1.29.62,5,4.54,10.23,7.46,15.19,2.76,4.67,5.62,9.28,8.47,13.88l.47.8a.78.78,0,0,0,1.34,0c1.75-2.83,6.44-10.42,9-14.67,2.92-5,6.84-10.23,7.46-15.19,0-.4.07-1.2.07-1.29V15.49A16.77,16.77,0,0,0,17.36,0Zm-.53,23.05a6.37,6.37,0,1,1,6.37-6.37A6.37,6.37,0,0,1,16.83,23.08Z"/></g></g></svg>