<svg xmlns="http://www.w3.org/2000/svg" xmlns:xlink="http://www.w3.org/1999/xlink" viewBox="0 0 2078 2194"><defs><style>.cls-1,.cls-10,.cls-4,.cls-5,.cls-6,.cls-9{fill:none;}.cls-2{fill:#383838;}.cls-3,.cls-7{fill:#f0f0f0;}.cls-4,.cls-6,.cls-9{stroke:#f0f0f0;stroke-linecap:round;}.cls-4,.cls-5{stroke-miterlimit:10;}.cls-4{stroke-width:16px;}.cls-10,.cls-5,.cls-7{stroke:#383838;}.cls-5,.cls-9{stroke-width:30px;}.cls-10,.cls-6,.cls-7,.cls-9{stroke-linejoin:round;}.cls-6{stroke-width:36.04px;}.cls-7{stroke-width:11px;}.cls-8{clip-path:url(#clip-path);}.cls-10{stroke-width:14px;}</style><clipPath id="clip-path"><path class="cls-1" d="M1782,280,1093,997.69,1095,60C1380.21,70.69,1598.35,98.34,1782,280Z"/></clipPath></defs><title>pizza</title><g id="Layer_2" data-name="Layer 2"><g id="Layer_1-2" data-name="Layer 1"><circle class="cls-2" cx="1030.52" cy="1167.5" r="982"/><circle class="cls-3" cx="1243" cy="721" r="85"/><circle class="cls-3" cx="552" cy="584" r="81"/><circle class="cls-3" cx="934" cy="686" r="82"/><circle class="cls-3" cx="685" cy="885" r="89"/><circle class="cls-3" cx="847" cy="457" r="80"/><circle class="cls-3" cx="414" cy="783" r="73"/><circle class="cls-3" cx="289" cy="1091" r="82"/><circle class="cls-3" cx="750" cy="1119" r="90"/><circle class="cls-3" cx="517" cy="1264" r="79"/><circle class="cls-3" cx="402.5" cy="1545.5" r="74.5"/><circle class="cls-3" cx="813" cy="1442" r="86"/><circle class="cls-3" cx="969" cy="1695" r="85"/><circle class="cls-3" cx="664" cy="1781" r="91"/><circle class="cls-3" cx="1117" cy="1355" r="81"/><circle class="cls-3" cx="1274" cy="1539" r="85"/><circle class="cls-3" cx="1226" cy="1848" r="94"/><circle class="cls-3" cx="1538" cy="1654" r="92"/><circle class="cls-3" cx="1441" cy="1318" r="82"/><circle class="cls-3" cx="1732" cy="1405" r="87"/><circle class="cls-3" cx="1027" cy="1029" r="90"/><circle class="cls-3" cx="1774" cy="1126" r="66"/><circle class="cls-3" cx="1362" cy="1012" r="77"/><circle class="cls-3" cx="1660" cy="818" r="78"/><circle class="cls-3" cx="1146" cy="474" r="79"/><circle class="cls-3" cx="1523" cy="636" r="74"/><line class="cls-4" x1="1331.47" y1="1708.08" x2="1386.53" y2="1731.92"/><line class="cls-4" x1="1446.47" y1="873.08" x2="1501.53" y2="896.92"/><line class="cls-4" x1="1554.83" y1="1032.88" x2="1591.17" y2="985.12"/><line class="cls-4" x1="1127.83" y1="877.88" x2="1164.17" y2="830.12"/><line class="cls-4" x1="880.83" y1="877.88" x2="917.17" y2="830.12"/><line class="cls-4" x1="526.83" y1="877.88" x2="563.17" y2="830.12"/><line class="cls-4" x1="533.83" y1="1461.88" x2="570.17" y2="1414.12"/><line class="cls-4" x1="1276.6" y1="1216.11" x2="1271.4" y2="1275.89"/><line class="cls-4" x1="1322.6" y1="507.11" x2="1317.4" y2="566.89"/><line class="cls-4" x1="343.6" y1="905.11" x2="338.4" y2="964.89"/><line class="cls-4" x1="701.6" y1="1274.11" x2="696.4" y2="1333.89"/><line class="cls-4" x1="729.6" y1="635.11" x2="724.4" y2="694.89"/><line class="cls-4" x1="1584.6" y1="1385.11" x2="1579.4" y2="1444.89"/><line class="cls-4" x1="776.6" y1="1624.11" x2="771.4" y2="1683.89"/><line class="cls-4" x1="1067.47" y1="592.08" x2="1122.53" y2="615.92"/><line class="cls-4" x1="1602.47" y1="1234.08" x2="1657.53" y2="1257.92"/><line class="cls-4" x1="699.47" y1="501.08" x2="754.53" y2="524.92"/><line class="cls-4" x1="313.47" y1="1344.08" x2="368.53" y2="1367.92"/><line class="cls-4" x1="517.47" y1="1048.08" x2="572.53" y2="1071.92"/><line class="cls-4" x1="1065.1" y1="1559.56" x2="1124.9" y2="1564.44"/><line class="cls-4" x1="869.1" y1="1869.56" x2="928.9" y2="1874.44"/><path class="cls-3" d="M1739,441l-705,717.69L1016,144C1301.21,154.69,1555.35,259.34,1739,441Z"/><path class="cls-5" d="M346.42,1872"/><circle class="cls-6" cx="1030.52" cy="1167.5" r="827"/><path class="cls-7" d="M1014,186v938.47L349.76,460.24a15,15,0,0,0-21.21,21.21l659,659H49a15,15,0,0,0,0,30H990l-672.8,672.8a15,15,0,1,0,21.21,21.21L1014,1188.9V2147a15,15,0,0,0,30,0V1196.9l676.55,676.55a15,15,0,0,0,21.21-21.21L1060,1170.44h953a15,15,0,0,0,0-30H1062.46L1716,464.38"/><path class="cls-3" d="M1027,2194c-138.63,0-273.13-27.16-399.76-80.72A1030.54,1030.54,0,0,1,80.72,1566.76C27.16,1440.13,0,1305.63,0,1167S27.16,893.87,80.72,767.24A1030.54,1030.54,0,0,1,627.24,220.72C753.87,167.16,888.37,140,1027,140s273.13,27.16,399.76,80.72a1030.54,1030.54,0,0,1,546.52,546.52C2026.84,893.87,2054,1028.37,2054,1167s-27.16,273.13-80.72,399.76a1030.54,1030.54,0,0,1-546.52,546.52C1300.13,2166.84,1165.63,2194,1027,2194Zm0-2003.41c-131.83,0-259.69,25.81-380.05,76.72A980,980,0,0,0,127.31,786.95C76.4,907.31,50.59,1035.17,50.59,1167s25.81,259.69,76.72,380.05a980,980,0,0,0,519.63,519.63c120.36,50.91,248.23,76.72,380.05,76.72s259.69-25.81,380.05-76.72a980,980,0,0,0,519.63-519.63c50.91-120.36,76.72-248.23,76.72-380.05s-25.81-259.69-76.72-380.05a980,980,0,0,0-519.63-519.63C1286.69,216.4,1158.83,190.59,1027,190.59Z"/><path class="cls-3" d="M1041.58,0l0,1127.12,785.8-803.25Q1542.59,21.92,1041.58,0Z"/><g class="cls-8"><circle class="cls-2" cx="1080.52" cy="1041.5" r="982"/><circle class="cls-6" cx="1080.52" cy="1041.5" r="827"/><line class="cls-6" x1="1079" y1="60" x2="1079" y2="2021"/><line class="cls-9" x1="389.16" y1="344.84" x2="1781.16" y2="1736.84"/><line class="cls-9" x1="99" y1="1029.44" x2="2063" y2="1029.44"/><line class="cls-9" x1="377.84" y1="1727.84" x2="1769.84" y2="335.84"/><circle class="cls-3" cx="1293" cy="595" r="85"/><circle class="cls-3" cx="602" cy="458" r="81"/><circle class="cls-3" cx="984" cy="560" r="82"/><circle class="cls-3" cx="735" cy="759" r="89"/><circle class="cls-3" cx="897" cy="331" r="80"/><circle class="cls-3" cx="464" cy="657" r="73"/><circle class="cls-3" cx="339" cy="965" r="82"/><circle class="cls-3" cx="800" cy="993" r="90"/><circle class="cls-3" cx="567" cy="1138" r="79"/><circle class="cls-3" cx="452.5" cy="1419.5" r="74.5"/><circle class="cls-3" cx="863" cy="1316" r="86"/><circle class="cls-3" cx="1019" cy="1569" r="85"/><circle class="cls-3" cx="714" cy="1655" r="91"/><circle class="cls-3" cx="1167" cy="1229" r="81"/><circle class="cls-3" cx="1324" cy="1413" r="85"/><circle class="cls-3" cx="1276" cy="1722" r="94"/><circle class="cls-3" cx="1588" cy="1528" r="92"/><circle class="cls-3" cx="1491" cy="1192" r="82"/><circle class="cls-3" cx="1782" cy="1279" r="87"/><circle class="cls-3" cx="1077" cy="903" r="90"/><circle class="cls-3" cx="1824" cy="1000" r="66"/><circle class="cls-3" cx="1412" cy="886" r="77"/><circle class="cls-3" cx="1710" cy="692" r="78"/><circle class="cls-3" cx="1196" cy="348" r="79"/><circle class="cls-3" cx="1563" cy="458" r="74"/><line class="cls-4" x1="1381.47" y1="1582.08" x2="1436.53" y2="1605.92"/><line class="cls-4" x1="1496.47" y1="747.08" x2="1551.53" y2="770.92"/><line class="cls-4" x1="1604.83" y1="906.88" x2="1641.17" y2="859.12"/><line class="cls-4" x1="1177.83" y1="751.88" x2="1214.17" y2="704.12"/><line class="cls-4" x1="930.83" y1="751.88" x2="967.17" y2="704.12"/><line class="cls-4" x1="576.83" y1="751.88" x2="613.17" y2="704.12"/><line class="cls-4" x1="583.83" y1="1335.88" x2="620.17" y2="1288.12"/><line class="cls-4" x1="1326.6" y1="1090.11" x2="1321.4" y2="1149.89"/><line class="cls-4" x1="1372.6" y1="381.11" x2="1367.4" y2="440.89"/><line class="cls-4" x1="393.6" y1="779.11" x2="388.4" y2="838.89"/><line class="cls-4" x1="751.6" y1="1148.11" x2="746.4" y2="1207.89"/><line class="cls-4" x1="779.6" y1="509.11" x2="774.4" y2="568.89"/><line class="cls-4" x1="1634.6" y1="1259.11" x2="1629.4" y2="1318.89"/><line class="cls-4" x1="826.6" y1="1498.11" x2="821.4" y2="1557.89"/><line class="cls-4" x1="1117.47" y1="466.08" x2="1172.53" y2="489.92"/><line class="cls-4" x1="1652.47" y1="1108.08" x2="1707.53" y2="1131.92"/><line class="cls-4" x1="749.47" y1="375.08" x2="804.53" y2="398.92"/><line class="cls-4" x1="363.47" y1="1218.08" x2="418.53" y2="1241.92"/><line class="cls-4" x1="567.47" y1="922.08" x2="622.53" y2="945.92"/><line class="cls-4" x1="1115.1" y1="1433.56" x2="1174.9" y2="1438.44"/><line class="cls-4" x1="919.1" y1="1743.56" x2="978.9" y2="1748.44"/></g><path class="cls-10" d="M1093,60l0,925.12,645-659.29Q1504.22,78,1093,60Z"/></g></g></svg>