<svg xmlns="http://www.w3.org/2000/svg" viewBox="0 0 2054 2054"><defs><style>.cls-1{fill:#383838;}.cls-2,.cls-5{fill:#f0f0f0;}.cls-3,.cls-4{fill:none;stroke-miterlimit:10;}.cls-3{stroke:#f0f0f0;stroke-linecap:round;stroke-width:16px;}.cls-4,.cls-5{stroke:#383838;}.cls-4{stroke-width:30px;}.cls-5{stroke-linejoin:round;stroke-width:7px;}</style></defs><title>pizza-loader</title><g id="Layer_2" data-name="Layer 2"><g id="Layer_1-2" data-name="Layer 1"><circle class="cls-1" cx="1030.52" cy="1027.5" r="982"/><circle class="cls-2" cx="1243" cy="581" r="85"/><circle class="cls-2" cx="552" cy="444" r="81"/><circle class="cls-2" cx="934" cy="546" r="82"/><circle class="cls-2" cx="685" cy="745" r="89"/><circle class="cls-2" cx="847" cy="317" r="80"/><circle class="cls-2" cx="414" cy="643" r="73"/><circle class="cls-2" cx="289" cy="951" r="82"/><circle class="cls-2" cx="750" cy="979" r="90"/><circle class="cls-2" cx="517" cy="1124" r="79"/><circle class="cls-2" cx="402.5" cy="1405.5" r="74.5"/><circle class="cls-2" cx="813" cy="1302" r="86"/><circle class="cls-2" cx="969" cy="1555" r="85"/><circle class="cls-2" cx="664" cy="1641" r="91"/><circle class="cls-2" cx="1117" cy="1215" r="81"/><circle class="cls-2" cx="1274" cy="1399" r="85"/><circle class="cls-2" cx="1226" cy="1708" r="94"/><circle class="cls-2" cx="1538" cy="1514" r="92"/><circle class="cls-2" cx="1441" cy="1204" r="82"/><circle class="cls-2" cx="1464" cy="951" r="82"/><circle class="cls-2" cx="1732" cy="1265" r="87"/><circle class="cls-2" cx="1027" cy="889" r="90"/><circle class="cls-2" cx="1774" cy="986" r="66"/><circle class="cls-2" cx="1198" cy="1015" r="77"/><circle class="cls-2" cx="1348" cy="765" r="77"/><circle class="cls-2" cx="1660" cy="678" r="78"/><circle class="cls-2" cx="1146" cy="334" r="79"/><circle class="cls-2" cx="1523" cy="496" r="74"/><line class="cls-3" x1="1331.47" y1="1568.08" x2="1386.53" y2="1591.92"/><line class="cls-3" x1="1496.47" y1="713.08" x2="1551.53" y2="736.92"/><line class="cls-3" x1="1634.83" y1="867.88" x2="1671.17" y2="820.12"/><line class="cls-3" x1="1127.83" y1="737.88" x2="1164.17" y2="690.12"/><line class="cls-3" x1="880.83" y1="737.88" x2="917.17" y2="690.12"/><line class="cls-3" x1="526.83" y1="737.88" x2="563.17" y2="690.12"/><line class="cls-3" x1="533.83" y1="1321.88" x2="570.17" y2="1274.12"/><line class="cls-3" x1="1276.6" y1="1076.11" x2="1271.4" y2="1135.89"/><line class="cls-3" x1="1322.6" y1="367.11" x2="1317.4" y2="426.89"/><line class="cls-3" x1="343.6" y1="765.11" x2="338.4" y2="824.89"/><line class="cls-3" x1="701.6" y1="1134.11" x2="696.4" y2="1193.89"/><line class="cls-3" x1="729.6" y1="495.11" x2="724.4" y2="554.89"/><line class="cls-3" x1="1584.6" y1="1245.11" x2="1579.4" y2="1304.89"/><line class="cls-3" x1="776.6" y1="1484.11" x2="771.4" y2="1543.89"/><line class="cls-3" x1="1067.47" y1="452.08" x2="1122.53" y2="475.92"/><line class="cls-3" x1="1602.47" y1="1094.08" x2="1657.53" y2="1117.92"/><line class="cls-3" x1="699.47" y1="361.08" x2="754.53" y2="384.92"/><line class="cls-3" x1="313.47" y1="1204.08" x2="368.53" y2="1227.92"/><line class="cls-3" x1="517.47" y1="908.08" x2="572.53" y2="931.92"/><line class="cls-3" x1="1065.1" y1="1419.56" x2="1124.9" y2="1424.44"/><line class="cls-3" x1="869.1" y1="1729.56" x2="928.9" y2="1734.44"/><path class="cls-4" d="M346.42,1732"/><path class="cls-2" d="M1030.52,1870.5A843.22,843.22,0,0,1,702.38,250.75a843.21,843.21,0,0,1,656.28,1553.49A837.73,837.73,0,0,1,1030.52,1870.5Zm0-1654a808.42,808.42,0,1,0,315.67,63.73A805.9,805.9,0,0,0,1030.52,216.5Z"/><path class="cls-1" d="M1030.52,188a839.72,839.72,0,0,1,326.78,1613A839.71,839.71,0,0,1,703.74,254a834.25,834.25,0,0,1,326.78-66m0,1654a811.92,811.92,0,1,0-317-64,809.39,809.39,0,0,0,317,64m0-1661A846.72,846.72,0,0,0,701,1807.47,846.71,846.71,0,0,0,1360,247.53,841.21,841.21,0,0,0,1030.52,181Zm0,1654a804.92,804.92,0,1,1,314.31-63.45A802.42,802.42,0,0,1,1030.52,1835Z"/><path class="cls-5" d="M2017.51,1001.13h0a15,15,0,0,0-4.5-.69l-522.52.69-431,6.37,688-682.92a15,15,0,0,0-21.21-21.21L1044.47,985.16v-953a15,15,0,1,0-30,0V984.94L349.76,320.24a15,15,0,0,0-21.21,21.21l659,659H49a15,15,0,1,0,0,30H990l-672.8,672.8a15,15,0,1,0,21.21,21.21L1014,1048.9V2007a15,15,0,0,0,30,0V1056.9l676.55,676.55a15,15,0,0,0,21.21-21.21L1060,1030.44h953a15,15,0,0,0,4.51-29.31Z"/><path class="cls-2" d="M1027,2054c-138.63,0-273.13-27.16-399.76-80.72A1030.54,1030.54,0,0,1,80.72,1426.76C27.16,1300.13,0,1165.63,0,1027S27.16,753.87,80.72,627.24A1030.54,1030.54,0,0,1,627.24,80.72C753.87,27.16,888.37,0,1027,0s273.13,27.16,399.76,80.72a1030.54,1030.54,0,0,1,546.52,546.52C2026.84,753.87,2054,888.37,2054,1027s-27.16,273.13-80.72,399.76a1030.54,1030.54,0,0,1-546.52,546.52C1300.13,2026.84,1165.63,2054,1027,2054Zm0-2003.41c-131.83,0-259.69,25.81-380.05,76.72A980,980,0,0,0,127.31,646.95C76.4,767.31,50.59,895.17,50.59,1027s25.81,259.69,76.72,380.05a980,980,0,0,0,519.63,519.63c120.36,50.91,248.23,76.72,380.05,76.72s259.69-25.81,380.05-76.72a980,980,0,0,0,519.63-519.63c50.91-120.36,76.72-248.23,76.72-380.05s-25.81-259.69-76.72-380.05a980,980,0,0,0-519.63-519.63C1286.69,76.4,1158.83,50.59,1027,50.59Z"/></g></g></svg>