<svg xmlns="http://www.w3.org/2000/svg" viewBox="0 0 45.79 26.11"><defs><style>.cls-1{fill:#383838;}.cls-2{fill:#f1f0f0;}</style></defs><title>potato_2</title><g id="Layer_2" data-name="Layer 2"><g id="Layer_1-2" data-name="Layer 1"><path class="cls-1" d="M.74,13c1.11,4.41,4.37,7.13,8.33,9.11A42.41,42.41,0,0,0,24.38,26c7.39.48,15-1,19.41-7.43a12.41,12.41,0,0,0-.53-14.27c-3.67-5-7.59-3.7-13.13-3.22-2.05.18-5.72,1.09-7.78.84C20.54,1.71,15.81.79,14,.53,9.62-.1-3.19-2.59.74,13Z"/><circle class="cls-2" cx="7.04" cy="11.43" r="0.75"/><circle class="cls-2" cx="36.84" cy="19.22" r="1"/><circle class="cls-2" cx="7.79" cy="5.36" r="0.5" transform="translate(-1.5 7.08) rotate(-45)"/><circle class="cls-2" cx="31.54" cy="5.36" r="0.63"/><circle class="cls-2" cx="22.96" cy="13.6" r="0.63"/><circle class="cls-2" cx="13.65" cy="17.12" r="0.63" transform="translate(-8.1 14.67) rotate(-45)"/><circle class="cls-2" cx="38.8" cy="9.88" r="0.8"/></g></g></svg>