<svg xmlns="http://www.w3.org/2000/svg" viewBox="0 0 23.79 14.58"><defs><style>.cls-1{fill:#383838;}</style></defs><title>steam_1</title><g id="Layer_2" data-name="Layer 2"><g id="Layer_1-2" data-name="Layer 1"><path class="cls-1" d="M1.42,4.75a4.42,4.42,0,0,0,.19,2.08,3.84,3.84,0,0,0,.46.66,4.62,4.62,0,0,1,.74,1.11A2.63,2.63,0,0,1,3,10.32a3,3,0,0,1-.73,1.32A19.22,19.22,0,0,0,.59,13.33,4.06,4.06,0,0,1,1,10.85,2.33,2.33,0,0,0,1.19,10,1.3,1.3,0,0,0,1,9.44,5.09,5.09,0,0,1,0,7.11,2.6,2.6,0,0,1,1.42,4.75Z"/><path class="cls-1" d="M11.78,0a6,6,0,0,0-.68,1.82,2.25,2.25,0,0,0,0,1.46c.06.05.25.23.48.42a9.66,9.66,0,0,1,.83.69,2.4,2.4,0,0,1,.24.28l.18.25a4.93,4.93,0,0,1,.31.54,4.75,4.75,0,0,1,.37,1.19,5.57,5.57,0,0,1,.07.59,4.59,4.59,0,0,1,0,.7,5.05,5.05,0,0,1-.35,1.16,20.15,20.15,0,0,1-.95,1.8C11.68,12,11.1,13,12,14.22L11.53,14a4.92,4.92,0,0,1-.43-.36,2.41,2.41,0,0,1-.51-1.07,4.94,4.94,0,0,1,.22-2.24c.18-.68.46-1.29.62-1.87a4.14,4.14,0,0,0,.17-.76c0-.11,0-.17,0-.3s0-.27-.05-.4a3,3,0,0,0-.2-.72,2.93,2.93,0,0,0-.16-.34l-.1-.17L11,5.65A8.51,8.51,0,0,0,10.41,5a3,3,0,0,1-.74-1.14,2.32,2.32,0,0,1,0-1.38,4.45,4.45,0,0,1,.49-1A3.85,3.85,0,0,1,11.78,0Z"/><path class="cls-1" d="M22.54,14.58c-.17-1,.2-2.28-.25-2.51a5.36,5.36,0,0,0-.87-.79A4.59,4.59,0,0,1,20.22,10,2.64,2.64,0,0,1,20,7.84a8.78,8.78,0,0,1,.67-1.38,6.09,6.09,0,0,0,.78-2.62,3.26,3.26,0,0,1,.75,1.45,4.13,4.13,0,0,1,0,1.7c-.1.54-.29,1-.34,1.38A.9.9,0,0,0,22,9a5.31,5.31,0,0,0,.74.9,4.37,4.37,0,0,1,1,1.49,2,2,0,0,1,.08,1.08,2.7,2.7,0,0,1-.34.82C23.14,13.76,22.86,14.16,22.54,14.58Z"/></g></g></svg>