<svg xmlns="http://www.w3.org/2000/svg" viewBox="0 0 89.3 89.3"><defs><style>.cls-1{fill:#383838;}</style></defs><title>world</title><g id="Layer_2" data-name="Layer 2"><g id="Layer_1-2" data-name="Layer 1"><path class="cls-1" d="M44.65,0A44.65,44.65,0,1,0,89.3,44.65,44.7,44.7,0,0,0,44.65,0ZM79.6,63.35H66.24a79.39,79.39,0,0,0,2.06-15.94H84.19A39.35,39.35,0,0,1,79.6,63.35ZM5.11,47.41H21a79.39,79.39,0,0,0,2.06,15.94H9.7A39.35,39.35,0,0,1,5.11,47.41ZM9.7,25.94H23.05A79.66,79.66,0,0,0,21,42.41H5.07A39.36,39.36,0,0,1,9.7,25.94Zm37.19-5V5.31C52,6.66,56.51,12.55,59.52,20.94Zm14.17,5a74.18,74.18,0,0,1,2.26,16.47H46.89V25.94ZM41.89,5.45V20.94H29.77C32.69,12.84,37,7.06,41.89,5.45Zm0,20.49V42.41H26a74.18,74.18,0,0,1,2.26-16.47ZM26,47.41H41.89V63.35H28.24A74,74,0,0,1,26,47.41ZM41.89,68.35V83.84c-4.88-1.61-9.2-7.38-12.11-15.49Zm5,15.63V68.35H59.52C56.51,76.75,52,82.63,46.89,84Zm0-20.63V47.41H63.3a74,74,0,0,1-2.24,15.94ZM68.32,42.41a79.66,79.66,0,0,0-2.08-16.47H79.6a39.36,39.36,0,0,1,4.63,16.47Zm8.09-21.47H64.84A42.87,42.87,0,0,0,57.75,7.23,39.82,39.82,0,0,1,76.41,20.94ZM31.55,7.23a42.86,42.86,0,0,0-7.09,13.71H12.89A39.82,39.82,0,0,1,31.55,7.23ZM12.89,68.35H24.46a42.86,42.86,0,0,0,7.09,13.71A39.82,39.82,0,0,1,12.89,68.35ZM57.75,82.06a42.86,42.86,0,0,0,7.09-13.71H76.41A39.82,39.82,0,0,1,57.75,82.06Z"/></g></g></svg>